<?xml version="1.0" standalone="no"?>
<!DOCTYPE svg PUBLIC "-//W3C//DTD SVG 20010904//EN"
 "http://www.w3.org/TR/2001/REC-SVG-20010904/DTD/svg10.dtd">
<svg version="1.0" xmlns="http://www.w3.org/2000/svg"
 width="1147.000000pt" height="1280.000000pt" viewBox="0 0 1147.000000 1280.000000"
 preserveAspectRatio="xMidYMid meet">
<g transform="translate(0.000000,1280.000000) scale(0.100000,-0.100000)"
fill="#000000" stroke="none">
<path d="M4182 12682 l-43 -117 -171 -130 c-491 -371 -608 -608 -688 -1390
l-20 -200 -77 -72 c-53 -49 -86 -72 -103 -73 -25 0 -84 39 -234 154 -134 103
-256 278 -292 417 -19 75 -21 227 -4 319 21 115 163 400 268 539 l25 34 -54
-5 c-78 -9 -293 -72 -437 -129 -400 -159 -728 -448 -897 -791 -106 -214 -142
-347 -155 -568 -15 -262 30 -506 148 -790 46 -114 67 -155 98 -196 13 -17 24
-34 24 -38 0 -29 209 -306 230 -306 6 0 10 21 10 48 0 56 34 296 56 391 52
229 149 417 262 508 59 48 180 100 261 112 130 20 226 13 448 -35 33 -6 91
-61 114 -105 38 -76 36 -83 -220 -756 -484 -1273 -576 -1515 -879 -2323 -171
-454 -313 -832 -317 -841 -5 -13 -29 -7 -162 38 -86 29 -160 53 -164 53 -13 0
-11 -51 5 -103 23 -76 75 -137 155 -182 39 -22 71 -46 71 -52 0 -7 -7 -30 -16
-52 l-16 -40 -88 54 c-76 46 -89 51 -95 37 -33 -81 -234 -616 -232 -618 8 -8
132 27 174 50 80 44 106 79 189 256 42 91 78 166 79 168 2 3 97 -36 103 -43 7
-7 -160 -325 -199 -379 -24 -34 -58 -66 -91 -85 l-53 -31 55 0 c34 0 72 8 99
20 49 23 156 127 216 212 22 32 47 57 54 58 8 0 31 -11 50 -25 20 -13 65 -32
101 -41 36 -9 68 -19 72 -22 3 -4 -13 -83 -38 -177 -73 -282 -104 -448 -104
-562 0 -198 39 -344 166 -624 46 -102 84 -196 84 -207 0 -16 -9 -24 -41 -32
-23 -6 -43 -10 -45 -7 -2 2 -40 84 -85 183 -45 98 -82 180 -84 182 -1 1 -25
-13 -53 -32 -28 -18 -73 -39 -99 -45 l-49 -12 0 -97 c0 -109 -11 -145 -64
-206 -56 -63 -99 -79 -205 -74 l-91 4 -67 -185 c-37 -101 -66 -186 -64 -187 2
-2 103 -21 226 -43 l224 -41 263 7 c224 5 266 9 277 22 32 38 244 403 282 485
94 202 135 353 135 501 0 85 -7 120 -74 372 -95 354 -138 486 -212 650 l-59
131 -169 98 c-92 54 -170 103 -172 109 -3 6 3 30 13 53 l18 41 167 -99 167
-98 70 74 c80 84 133 153 126 164 -7 11 -374 206 -403 215 -16 5 -22 13 -19
23 2 10 112 296 245 637 229 592 874 2254 1120 2890 64 165 122 309 129 321 7
11 65 44 130 73 l116 54 271 -32 c149 -18 279 -34 289 -36 9 -2 17 -1 17 0 0
2 -98 78 -217 169 -120 90 -227 175 -239 188 -21 23 -48 105 -63 191 l-9 48
107 136 c196 251 339 467 392 592 42 100 79 255 86 356 6 95 -12 281 -46 479
l-19 109 69 188 c38 102 69 196 69 207 0 18 -33 32 -74 32 -6 0 -30 -53 -54
-118z"/>
<path d="M11305 8007 c-383 -226 -619 -405 -914 -690 -202 -196 -484 -591
-703 -987 -65 -117 -68 -126 -51 -138 10 -7 63 -45 118 -84 358 -254 605 -519
913 -979 240 -359 424 -765 556 -1229 37 -129 74 -259 83 -288 8 -30 16 -52
18 -50 10 9 87 606 105 803 41 474 41 501 34 2143 -4 870 -10 1582 -13 1582
-3 -1 -69 -38 -146 -83z"/>
<path d="M9452 6138 c-38 -38 1 -85 160 -190 79 -52 193 -138 253 -191 375
-328 725 -845 971 -1436 140 -334 271 -778 329 -1111 15 -85 30 -163 34 -173
4 -12 17 30 37 117 l30 135 -47 223 c-47 221 -108 423 -221 728 -184 499 -395
856 -775 1311 -112 134 -408 390 -600 518 -122 81 -148 92 -171 69z"/>
<path d="M705 6091 c-59 -27 -89 -85 -89 -175 l-1 -70 155 -97 c85 -54 159
-97 163 -95 8 1 137 329 137 347 0 4 -41 30 -92 58 -87 48 -95 51 -162 50 -45
0 -86 -7 -111 -18z"/>
<path d="M9455 5900 c-3 -5 -80 -66 -170 -136 -91 -69 -165 -130 -165 -134 0
-7 212 -218 1438 -1435 182 -181 332 -327 332 -324 0 17 -67 199 -134 363
-105 255 -222 486 -367 724 -161 261 -272 403 -480 611 -130 130 -404 341
-443 341 -3 0 -8 -4 -11 -10z"/>
<path d="M2275 5768 c-116 -133 -110 -119 -80 -179 58 -113 111 -272 210 -632
98 -355 105 -384 105 -470 -1 -257 -93 -511 -327 -900 -53 -89 -96 -169 -96
-179 2 -18 85 -122 236 -293 49 -55 107 -122 130 -149 23 -27 69 -80 102 -117
67 -77 189 -216 262 -299 26 -31 73 -86 102 -123 39 -48 59 -66 70 -61 9 4
106 10 216 15 110 4 301 15 425 24 392 29 763 122 999 251 230 126 449 333
666 629 164 225 261 370 270 407 5 20 3 27 -12 32 -316 94 -1643 507 -1813
564 -504 170 -830 323 -947 444 -28 28 -63 118 -228 577 -107 299 -195 545
-195 547 0 15 -26 -9 -95 -88z"/>
<path d="M495 5721 c-109 -52 -132 -103 -113 -249 10 -81 12 -84 47 -107 92
-59 560 -325 571 -325 7 0 41 5 74 11 52 9 64 15 82 42 34 53 45 97 38 158
l-6 57 -102 21 c-55 12 -132 25 -169 28 -39 4 -71 11 -73 18 -3 7 9 47 26 90
17 43 27 81 23 85 -14 12 -307 188 -323 194 -8 4 -42 -7 -75 -23z"/>
<path d="M1567 5482 c-36 -44 -86 -92 -111 -108 -25 -16 -46 -31 -46 -34 0 -3
33 -22 73 -42 39 -21 89 -47 109 -59 21 -13 40 -21 43 -18 4 5 85 297 85 310
0 8 -56 29 -76 29 -7 0 -41 -35 -77 -78z"/>
<path d="M9045 5477 c-16 -13 -99 -76 -182 -141 l-153 -118 20 -27 c10 -14 95
-102 187 -196 92 -93 177 -182 188 -196 11 -14 250 -262 530 -551 281 -288
602 -621 715 -738 112 -118 248 -261 303 -317 l98 -103 142 107 c78 58 144
107 146 109 1 1 -15 79 -38 172 l-41 170 -212 213 c-348 349 -1659 1639 -1666
1639 -4 0 -20 -11 -37 -23z"/>
<path d="M265 5249 c-68 -63 -90 -154 -63 -269 l12 -51 255 -131 255 -131 60
12 c116 24 186 86 186 164 0 76 -19 100 -137 169 -220 130 -489 278 -506 278
-10 0 -38 -19 -62 -41z"/>
<path d="M1295 5203 c-4 -32 -13 -80 -22 -106 -15 -47 -72 -119 -103 -129 -20
-7 -22 -6 120 -81 130 -68 266 -110 281 -86 3 6 10 66 13 134 9 147 0 178 -66
223 -48 33 -187 102 -205 102 -7 0 -14 -24 -18 -57z"/>
<path d="M8539 4979 c-79 -61 -153 -119 -163 -129 -19 -18 -15 -23 216 -267
129 -136 257 -274 284 -305 42 -48 343 -372 758 -813 257 -274 324 -345 409
-439 49 -56 128 -140 175 -189 l85 -87 174 132 c96 73 177 136 179 140 3 5
-104 122 -239 261 -134 138 -282 293 -328 344 -121 132 -648 682 -894 933
-116 118 -278 286 -361 372 l-150 157 -145 -110z"/>
<path d="M1074 4841 c-19 -112 -57 -177 -124 -211 -22 -11 -40 -24 -40 -29 0
-14 329 -151 363 -151 86 0 162 47 173 106 8 42 -12 117 -36 139 -9 8 -87 53
-173 99 l-157 84 -6 -37z"/>
<path d="M154 4768 l-37 -50 17 -121 c10 -67 19 -124 21 -126 3 -2 102 -51
222 -108 l217 -103 53 25 c68 34 93 66 93 120 0 47 -26 145 -43 161 -7 6 -123
66 -259 132 l-247 120 -37 -50z"/>
<path d="M8254 4706 l-38 -33 89 -94 c48 -52 136 -144 194 -204 58 -61 187
-200 287 -310 100 -110 237 -259 305 -330 68 -72 201 -214 294 -315 94 -101
183 -198 199 -215 41 -42 304 -323 450 -482 66 -72 126 -132 131 -132 6 0 25
13 43 30 40 36 56 11 -139 219 -326 349 -879 946 -928 1003 -30 34 -129 139
-220 233 -91 95 -267 282 -391 417 -124 135 -228 246 -231 246 -3 1 -23 -14
-45 -33z"/>
<path d="M1550 4599 c0 -83 -19 -138 -63 -182 l-40 -40 39 7 c22 4 52 15 69
25 36 20 75 76 75 105 0 31 -45 122 -64 129 -13 5 -16 -2 -16 -44z"/>
<path d="M835 4436 c8 -84 -8 -135 -63 -197 l-31 -36 164 -70 c164 -71 165
-71 212 -59 38 10 55 22 80 55 28 36 33 51 33 97 0 56 -23 129 -43 137 -7 3
-90 37 -185 76 l-174 70 7 -73z"/>
<path d="M7917 4156 l-315 -334 6 -136 c8 -221 -16 -288 -146 -406 -36 -33
-64 -61 -61 -63 2 -2 43 -35 91 -73 48 -38 108 -85 134 -104 78 -57 287 -264
374 -370 208 -251 305 -440 385 -747 28 -106 71 -345 81 -445 4 -38 10 -68 13
-68 3 0 33 23 66 51 260 220 741 571 1348 984 81 55 146 105 144 112 -3 16
-440 487 -952 1028 -79 83 -211 227 -295 320 -250 279 -538 585 -551 585 -4 0
-149 -150 -322 -334z"/>
<path d="M1328 4255 c4 -82 2 -101 -18 -147 -12 -29 -36 -67 -52 -85 l-30 -31
33 7 c56 13 98 39 115 73 22 42 22 134 -1 181 -9 21 -15 50 -13 67 4 26 1 30
-17 30 -22 0 -22 -2 -17 -95z"/>
<path d="M230 4311 c0 -13 92 -213 185 -401 15 -31 49 -75 79 -102 l52 -48 64
168 c35 92 65 173 68 180 2 6 -1 12 -8 12 -6 0 -76 30 -153 66 -78 36 -175 81
-214 100 -40 18 -73 30 -73 25z"/>
<path d="M777 4057 c-40 -102 -676 -1744 -718 -1855 -69 -179 -74 -225 -33
-279 36 -48 81 -73 129 -73 33 1 48 8 86 43 38 34 53 59 79 127 18 47 46 119
62 160 41 105 658 1770 658 1776 0 7 -111 58 -192 88 -47 17 -68 21 -71 13z"/>
<path d="M7353 4002 c-97 -64 -291 -213 -329 -254 -17 -18 -57 -69 -89 -112
l-58 -79 18 -206 c9 -113 20 -220 24 -238 l6 -32 199 107 c162 87 213 119 272
175 142 133 152 216 68 575 -14 61 -29 112 -33 111 -3 0 -38 -21 -78 -47z"/>
<path d="M6066 3858 c-3 -29 -6 -101 -6 -160 0 -280 52 -392 217 -470 141 -66
493 -177 493 -155 0 7 -11 113 -24 237 l-25 225 -50 47 c-67 62 -214 159 -321
213 -81 41 -256 115 -271 115 -3 0 -9 -24 -13 -52z"/>
<path d="M5723 3708 c-20 -18 -105 -137 -189 -264 -83 -127 -157 -235 -163
-238 -6 -4 -30 -35 -53 -69 -50 -74 -197 -242 -241 -276 -18 -14 -61 -52 -97
-86 -88 -82 -277 -206 -397 -259 -244 -109 -484 -167 -818 -200 -189 -19 -463
-36 -597 -36 -122 -1 -203 -23 -203 -55 0 -42 52 -47 400 -35 454 15 734 41
909 86 143 36 357 109 436 149 132 67 313 199 445 325 180 173 426 481 610
764 86 134 99 172 66 205 -30 30 -64 26 -108 -11z"/>
<path d="M5765 3333 c-514 -728 -846 -997 -1404 -1138 -173 -44 -331 -65 -631
-85 -162 -11 -303 -21 -313 -23 -19 -2 583 -391 863 -557 316 -188 770 -440
1114 -620 l158 -83 -6 114 c-33 615 -13 844 104 1157 61 167 168 369 256 484
91 120 258 323 336 409 43 48 78 89 78 93 0 3 -37 23 -83 45 -97 46 -162 100
-208 173 -18 29 -38 56 -44 61 -14 10 -70 24 -126 32 l-46 7 -48 -69z"/>
<path d="M7265 3146 c-16 -8 -39 -20 -49 -28 -19 -15 -19 -15 1 -34 11 -10 98
-82 194 -159 180 -144 362 -318 414 -395 17 -25 36 -51 43 -58 48 -51 154
-241 216 -385 75 -176 151 -437 212 -724 10 -46 23 -83 29 -83 6 0 22 11 35
25 22 23 23 29 16 120 -19 271 -101 567 -235 850 -101 212 -296 440 -596 696
-105 90 -234 189 -244 189 -3 -1 -19 -7 -36 -14z"/>
<path d="M6375 2978 c-27 -33 -94 -108 -148 -167 -54 -58 -113 -125 -130 -149
-18 -24 -58 -77 -90 -118 -255 -329 -377 -721 -377 -1207 0 -173 14 -404 24
-414 3 -3 20 7 39 21 l35 27 1 152 c5 599 139 1035 439 1432 70 92 186 229
295 348 55 59 98 109 96 111 -7 6 -98 26 -116 25 -10 0 -40 -27 -68 -61z"/>
<path d="M6978 2989 c-21 -11 -38 -26 -38 -35 0 -23 88 -423 120 -548 73 -281
173 -513 293 -682 74 -103 239 -263 357 -343 132 -91 308 -187 507 -277 165
-75 185 -82 213 -73 70 25 23 70 -175 168 -176 87 -329 177 -457 267 -109 77
-322 290 -380 379 -145 224 -239 489 -334 938 -26 126 -52 227 -58 227 -6 -1
-28 -10 -48 -21z"/>
<path d="M7143 2978 c3 -12 27 -120 52 -238 63 -293 114 -457 195 -625 95
-198 242 -389 375 -490 41 -30 77 -60 80 -65 7 -12 346 -222 351 -218 7 8 -88
366 -135 507 -54 162 -136 344 -203 450 -67 106 -213 279 -322 380 -132 122
-329 287 -368 307 -30 16 -31 16 -25 -8z"/>
<path d="M6675 2967 c-2 -6 -6 -133 -9 -282 -7 -394 -41 -636 -122 -883 -58
-179 -118 -284 -281 -496 -68 -87 -313 -303 -488 -430 -100 -73 -155 -125
-155 -147 0 -29 27 -43 63 -32 36 11 243 154 360 249 104 83 317 275 317 285
0 4 22 31 49 61 135 147 250 394 304 648 30 141 56 431 62 700 3 146 8 275 11
288 5 24 -10 33 -74 45 -22 5 -34 3 -37 -6z"/>
<path d="M6494 2781 c-39 -42 -102 -114 -139 -161 -37 -47 -84 -103 -104 -125
-43 -46 -149 -220 -214 -350 -97 -192 -172 -485 -196 -768 -16 -175 -21 -327
-11 -327 18 0 171 133 264 230 242 253 363 478 425 790 31 160 41 251 47 415
2 83 6 201 9 263 2 61 1 111 -3 111 -4 -1 -39 -36 -78 -78z"/>
<path d="M6881 2670 c-1 -14 -6 -101 -11 -195 -31 -530 -89 -783 -242 -1055
-108 -194 -332 -420 -637 -646 -66 -49 -121 -91 -121 -94 0 -3 119 -61 264
-128 233 -109 298 -145 548 -304 324 -206 313 -200 400 -228 79 -25 112 -20
222 38 67 35 74 43 196 207 69 93 154 211 190 260 77 109 217 278 334 402 47
50 86 95 86 100 0 4 -65 42 -143 83 -283 149 -511 321 -640 480 -173 214 -274
444 -387 880 -32 124 -59 214 -59 200z"/>
</g>
</svg>
